<svg width="25" height="22" viewBox="0 0 25 22" fill="none" xmlns="http://www.w3.org/2000/svg">
<rect width="25" height="22" fill="#B9B9B9"/>
<g id="&#208;&#156;&#208;&#176;&#209;&#130;&#208;&#181;&#209;&#128;&#208;&#184;&#208;&#176;&#208;&#187;&#209;&#139;">
<rect width="24074" height="6326" transform="translate(-20681 -2446)" fill="white"/>
<g id="Vector">
<mask id="path-1-inside-1_452_2" fill="white">
<path d="M22.5738 1.49576C19.8981 -0.784512 15.9186 -0.374356 13.4625 2.15982L12.5006 3.15104L11.5387 2.15982C9.08751 -0.374356 5.10314 -0.784512 2.42736 1.49576C-0.639049 4.11295 -0.800182 8.81021 1.94396 11.6471L11.3922 21.403C12.0026 22.0329 12.9938 22.0329 13.6041 21.403L23.0524 11.6471C25.8014 8.81021 25.6402 4.11295 22.5738 1.49576Z"/>
</mask>
<path d="M22.5738 1.49576C19.8981 -0.784512 15.9186 -0.374356 13.4625 2.15982L12.5006 3.15104L11.5387 2.15982C9.08751 -0.374356 5.10314 -0.784512 2.42736 1.49576C-0.639049 4.11295 -0.800182 8.81021 1.94396 11.6471L11.3922 21.403C12.0026 22.0329 12.9938 22.0329 13.6041 21.403L23.0524 11.6471C25.8014 8.81021 25.6402 4.11295 22.5738 1.49576Z" stroke="url(#paint0_linear_452_2)" stroke-width="4" mask="url(#path-1-inside-1_452_2)"/>
</g>
</g>
<defs>
<linearGradient id="paint0_linear_452_2" x1="25.0005" y1="9.83187e-06" x2="-0.0861287" y2="0.099232" gradientUnits="userSpaceOnUse">
<stop stop-color="#FF417A"/>
<stop offset="1" stop-color="#FF1F00"/>
</linearGradient>
</defs>
</svg>
