<svg width="24" height="16" viewBox="0 0 24 16" fill="none" xmlns="http://www.w3.org/2000/svg">
<path fill-rule="evenodd" clip-rule="evenodd" d="M1.6 3.2C2.48366 3.2 3.2 2.48366 3.2 1.6C3.2 0.716344 2.48366 0 1.6 0C0.716344 0 0 0.716344 0 1.6C0 2.48366 0.716344 3.2 1.6 3.2ZM1.6 9.6C2.48366 9.6 3.2 8.88366 3.2 8C3.2 7.11634 2.48366 6.4 1.6 6.4C0.716344 6.4 0 7.11634 0 8C0 8.88366 0.716344 9.6 1.6 9.6ZM3.2 14.4C3.2 15.2837 2.48366 16 1.6 16C0.716344 16 0 15.2837 0 14.4C0 13.5163 0.716344 12.8 1.6 12.8C2.48366 12.8 3.2 13.5163 3.2 14.4ZM6.4 0C5.51634 0 4.8 0.716345 4.8 1.6C4.8 2.48366 5.51634 3.2 6.4 3.2H22.4C23.2837 3.2 24 2.48366 24 1.6C24 0.716345 23.2837 0 22.4 0H6.4ZM4.8 8C4.8 7.11634 5.51634 6.4 6.4 6.4H22.4C23.2837 6.4 24 7.11634 24 8C24 8.88366 23.2837 9.6 22.4 9.6H6.4C5.51634 9.6 4.8 8.88366 4.8 8ZM6.4 12.8C5.51634 12.8 4.8 13.5163 4.8 14.4C4.8 15.2837 5.51634 16 6.4 16H22.4C23.2837 16 24 15.2837 24 14.4C24 13.5163 23.2837 12.8 22.4 12.8H6.4Z" fill="#fff"/>
</svg>
