<svg width="24" height="20" viewBox="0 0 24 20" fill="none" xmlns="http://www.w3.org/2000/svg">
<path d="M12 0C9.10042 0 6.75 2.20352 6.75 4.92188C6.75 7.11953 10.1812 11.125 11.4958 12.5789C11.7621 12.8734 12.2383 12.8734 12.5042 12.5789C13.8188 11.125 17.25 7.11953 17.25 4.92188C17.25 2.20352 14.8996 0 12 0ZM12 6.5625C11.0333 6.5625 10.25 5.82812 10.25 4.92188C10.25 4.01562 11.0333 3.28125 12 3.28125C12.9667 3.28125 13.75 4.01562 13.75 4.92188C13.75 5.82812 12.9667 6.5625 12 6.5625ZM0.838333 8.43555C0.590908 8.52833 0.378804 8.68847 0.229379 8.89533C0.0799536 9.10218 5.92587e-05 9.34627 0 9.59609L0 19.3742C0 19.8164 0.47625 20.1187 0.914167 19.9547L6.66667 17.5V8.39531C6.29833 7.77109 5.99708 7.16328 5.78125 6.58203L0.838333 8.43555ZM12 14.0496C11.4138 14.0496 10.8592 13.8082 10.4788 13.3871C9.65958 12.4809 8.78833 11.4488 8 10.3902V17.4996L16 19.9996V10.3906C15.2117 11.4488 14.3408 12.4812 13.5213 13.3875C13.1408 13.8082 12.5863 14.0496 12 14.0496ZM23.0858 6.29531L17.3333 8.75V20L23.1617 17.8145C23.4091 17.7217 23.6213 17.5616 23.7707 17.3547C23.9201 17.1479 24 16.9037 24 16.6539V6.87578C24 6.43359 23.5238 6.13125 23.0858 6.29531Z" fill="#0575E6"/>
</svg>
