<svg width="21" height="32" viewBox="0 0 21 32" fill="none" xmlns="http://www.w3.org/2000/svg">
	<path d="M0 21C0 21.5523 0.447715 22 1 22H7.4C7.95228 22 8.4 21.5523 8.4 21C8.4 20.4477 7.95228 20 7.4 20H1C0.447715 20 0 20.4477 0 21Z" fill="#D9D9D9"/>
	<path d="M0 26C0 26.5523 0.447715 27 1 27H4.6C5.15229 27 5.6 26.5523 5.6 26C5.6 25.4477 5.15228 25 4.6 25H0.999999C0.447714 25 0 25.4477 0 26Z" fill="#D9D9D9"/>
	<path d="M0 31C0 31.5523 0.447715 32 1 32H1.8C2.35229 32 2.8 31.5523 2.8 31C2.8 30.4477 2.35228 30 1.8 30H0.999999C0.447714 30 0 30.4477 0 31Z" fill="#D9D9D9"/>
	<path d="M0 16C0 16.5523 0.447715 17 1 17H10.2C10.7523 17 11.2 16.5523 11.2 16C11.2 15.4477 10.7523 15 10.2 15H0.999999C0.447714 15 0 15.4477 0 16Z" fill="#D9D9D9"/>
	<path d="M0 11C0 11.5523 0.447715 12 1 12H13.7C14.2523 12 14.7 11.5523 14.7 11C14.7 10.4477 14.2523 10 13.7 10H0.999999C0.447714 10 0 10.4477 0 11Z" fill="#D9D9D9"/>
	<path d="M0 6C0 6.55228 0.447715 7 1 7H16.5C17.0523 7 17.5 6.55228 17.5 6C17.5 5.44772 17.0523 5 16.5 5H1C0.447715 5 0 5.44772 0 6Z" fill="#D9D9D9"/>
	<path d="M0 1C0 1.55228 0.447715 2 1 2H20C20.5523 2 21 1.55228 21 1C21 0.447715 20.5523 0 20 0H1C0.447715 0 0 0.447715 0 1Z" fill="#D9D9D9"/>
</svg>
