<svg width="25" height="20" viewBox="0 0 25 20" fill="none" xmlns="http://www.w3.org/2000/svg">
<path d="M12.5157 11.0622L3.98583 19.5595C3.39626 20.1468 2.44293 20.1468 1.85963 19.5595L0.442173 18.1475C-0.147391 17.5601 -0.147391 16.6104 0.442173 16.0294L6.48833 10.0062L0.442173 3.98313C-0.147391 3.39581 -0.147391 2.44611 0.442173 1.86504L1.85336 0.440487C2.44293 -0.146829 3.39626 -0.146829 3.97955 0.440487L12.5094 8.93783C13.1052 9.52515 13.1052 10.4749 12.5157 11.0622ZM24.5578 8.93783L16.028 0.440487C15.4384 -0.146829 14.4851 -0.146829 13.9018 0.440487L12.4843 1.85255C11.8948 2.43986 11.8948 3.38957 12.4843 3.97063L18.5305 9.99375L12.4843 16.0169C11.8948 16.6042 11.8948 17.5539 12.4843 18.135L13.9018 19.547C14.4913 20.1343 15.4447 20.1343 16.028 19.547L24.5578 11.0497C25.1474 10.4749 25.1474 9.52515 24.5578 8.93783Z" fill="url(#paint0_linear_619_6832)"/>
<defs>
<linearGradient id="paint0_linear_619_6832" x1="25" y1="8.92999e-06" x2="0.0664612" y2="-0.0825074" gradientUnits="userSpaceOnUse">
<stop stop-color="#0575E6"/>
<stop offset="1" stop-color="#00F260"/>
</linearGradient>
</defs>
</svg>
