<svg width="22" height="20" viewBox="0 0 22 20" fill="none" xmlns="http://www.w3.org/2000/svg">
<path d="M21.3125 15.7143H6.875V15C6.875 14.6071 6.56563 14.2857 6.1875 14.2857H4.8125C4.43437 14.2857 4.125 14.6071 4.125 15V15.7143H0.6875C0.309375 15.7143 0 16.0357 0 16.4286V17.8571C0 18.25 0.309375 18.5714 0.6875 18.5714H4.125V19.2857C4.125 19.6786 4.43437 20 4.8125 20H6.1875C6.56563 20 6.875 19.6786 6.875 19.2857V18.5714H21.3125C21.6906 18.5714 22 18.25 22 17.8571V16.4286C22 16.0357 21.6906 15.7143 21.3125 15.7143ZM21.3125 8.57143H17.875V7.85714C17.875 7.46429 17.5656 7.14286 17.1875 7.14286H15.8125C15.4344 7.14286 15.125 7.46429 15.125 7.85714V8.57143H0.6875C0.309375 8.57143 0 8.89286 0 9.28571V10.7143C0 11.1071 0.309375 11.4286 0.6875 11.4286H15.125V12.1429C15.125 12.5357 15.4344 12.8571 15.8125 12.8571H17.1875C17.5656 12.8571 17.875 12.5357 17.875 12.1429V11.4286H21.3125C21.6906 11.4286 22 11.1071 22 10.7143V9.28571C22 8.89286 21.6906 8.57143 21.3125 8.57143ZM21.3125 1.42857H12.375V0.714286C12.375 0.321429 12.0656 0 11.6875 0H10.3125C9.93437 0 9.625 0.321429 9.625 0.714286V1.42857H0.6875C0.309375 1.42857 0 1.75 0 2.14286V3.57143C0 3.96429 0.309375 4.28571 0.6875 4.28571H9.625V5C9.625 5.39286 9.93437 5.71429 10.3125 5.71429H11.6875C12.0656 5.71429 12.375 5.39286 12.375 5V4.28571H21.3125C21.6906 4.28571 22 3.96429 22 3.57143V2.14286C22 1.75 21.6906 1.42857 21.3125 1.42857Z" fill="#FFF"/>
</svg>
