<svg width="31" height="26" viewBox="0 0 31 26" fill="none" xmlns="http://www.w3.org/2000/svg">
<path d="M14.6163 25.488C14.9818 25.639 15.3736 25.7163 15.7691 25.7153C16.1647 25.7163 16.5565 25.639 16.922 25.488C17.2876 25.337 17.6196 25.1152 17.8991 24.8353L28.3991 14.3253C29.2264 13.4952 29.8673 12.4984 30.2792 11.4012C30.6911 10.304 30.8645 9.13167 30.7878 7.96224C30.7112 6.79281 30.3863 5.65312 29.8347 4.61908C29.2832 3.58504 28.5177 2.68037 27.5891 1.96532C25.958 0.758424 23.9447 0.183557 21.9222 0.347195C19.8997 0.510834 18.005 1.40189 16.5891 2.85532L15.7691 3.67532L14.7691 2.67532C14.01 1.90828 13.1046 1.30149 12.1066 0.890944C11.1086 0.480397 10.0382 0.274451 8.95914 0.285321C7.899 0.274769 6.84719 0.473472 5.86397 0.870049C4.88075 1.26663 3.98542 1.85329 3.22928 2.59642C2.47314 3.33956 1.87104 4.22457 1.45747 5.20077C1.04389 6.17696 0.826975 7.22516 0.819135 8.28532C0.803552 9.44218 1.01834 10.5906 1.45098 11.6636C1.88363 12.7366 2.52547 13.7128 3.33914 14.5353L13.6391 24.8353C13.9186 25.1152 14.2507 25.337 14.6163 25.488Z" fill="#FF4B2B"/>
</svg>
