<svg width="13" height="13" viewBox="0 0 13 13" fill="none" xmlns="http://www.w3.org/2000/svg">
<path d="M0.372299 9.28571H7.98484C8.03375 9.28575 8.08218 9.27615 8.12736 9.25745C8.17255 9.23876 8.2136 9.21133 8.24818 9.17675C8.28276 9.14218 8.31018 9.10112 8.32888 9.05593C8.34758 9.01075 8.35718 8.96232 8.35714 8.91341V7.80087C8.35718 7.75197 8.34758 7.70354 8.32888 7.65835C8.31018 7.61317 8.28276 7.57211 8.24818 7.53753C8.2136 7.50295 8.17255 7.47553 8.12736 7.45683C8.08218 7.43814 8.03375 7.42853 7.98484 7.42857H0.372299C0.323397 7.42853 0.274968 7.43814 0.229781 7.45683C0.184595 7.47553 0.143538 7.50295 0.108959 7.53753C0.0743801 7.57211 0.0469582 7.61317 0.028262 7.65835C0.00956571 7.70354 -3.80465e-05 7.75197 1.13273e-07 7.80087V8.91341C-3.80465e-05 8.96232 0.00956571 9.01075 0.028262 9.05593C0.0469582 9.10112 0.0743801 9.14218 0.108959 9.17675C0.143538 9.21133 0.184595 9.23876 0.229781 9.25745C0.274968 9.27615 0.323397 9.28575 0.372299 9.28571ZM0.372299 1.85714H7.98484C8.03375 1.85718 8.08218 1.84758 8.12736 1.82888C8.17255 1.81018 8.2136 1.78276 8.24818 1.74818C8.28276 1.71361 8.31018 1.67255 8.32888 1.62736C8.34758 1.58218 8.35718 1.53375 8.35714 1.48484V0.372299C8.35718 0.323398 8.34758 0.274968 8.32888 0.229781C8.31018 0.184595 8.28276 0.143538 8.24818 0.108959C8.2136 0.0743801 8.17255 0.0469582 8.12736 0.0282619C8.08218 0.00956566 8.03375 -3.80465e-05 7.98484 1.13273e-07H0.372299C0.323397 -3.80465e-05 0.274968 0.00956566 0.229781 0.0282619C0.184595 0.0469582 0.143538 0.0743801 0.108959 0.108959C0.0743801 0.143538 0.0469582 0.184595 0.028262 0.229781C0.00956571 0.274968 -3.80465e-05 0.323398 1.13273e-07 0.372299V1.48484C-3.80465e-05 1.53375 0.00956571 1.58218 0.028262 1.62736C0.0469582 1.67255 0.0743801 1.71361 0.108959 1.74818C0.143538 1.78276 0.184595 1.81018 0.229781 1.82888C0.274968 1.84758 0.323397 1.85718 0.372299 1.85714ZM12.5357 3.71429H0.464286C0.34115 3.71429 0.223057 3.7632 0.135986 3.85027C0.0489158 3.93734 1.13273e-07 4.05544 1.13273e-07 4.17857V5.10714C1.13273e-07 5.23028 0.0489158 5.34837 0.135986 5.43544C0.223057 5.52251 0.34115 5.57143 0.464286 5.57143H12.5357C12.6588 5.57143 12.7769 5.52251 12.864 5.43544C12.9511 5.34837 13 5.23028 13 5.10714V4.17857C13 4.05544 12.9511 3.93734 12.864 3.85027C12.7769 3.7632 12.6588 3.71429 12.5357 3.71429ZM12.5357 11.1429H0.464286C0.34115 11.1429 0.223057 11.1918 0.135986 11.2788C0.0489158 11.3659 1.13273e-07 11.484 1.13273e-07 11.6071V12.5357C1.13273e-07 12.6588 0.0489158 12.7769 0.135986 12.864C0.223057 12.9511 0.34115 13 0.464286 13H12.5357C12.6588 13 12.7769 12.9511 12.864 12.864C12.9511 12.7769 13 12.6588 13 12.5357V11.6071C13 11.484 12.9511 11.3659 12.864 11.2788C12.7769 11.1918 12.6588 11.1429 12.5357 11.1429Z" fill="#BDBDBD"/>
</svg>
