<svg width="23" height="16" viewBox="0 0 23 16" fill="none" xmlns="http://www.w3.org/2000/svg">
<mask id="mask0_902_10341" style="mask-type:alpha" maskUnits="userSpaceOnUse" x="0" y="2" width="13" height="12">
<path d="M12.0633 2H0V14H12.0633V2Z" fill="#D9D9D9"/>
</mask>
<g mask="url(#mask0_902_10341)">
<path d="M20.8476 3H5.85938C3.65024 3 1.85938 4.79086 1.85938 7V9C1.85938 11.2091 3.65024 13 5.85938 13H20.8476C23.0567 13 24.8476 11.2091 24.8476 9V7C24.8476 4.79086 23.0567 3 20.8476 3Z" stroke="#BDBDBD" stroke-width="2"/>
</g>
<path d="M21.7696 8.7068C22.1601 8.31628 22.1601 7.68312 21.7696 7.29259L15.4057 0.928635C15.0151 0.538111 14.382 0.538111 13.9914 0.928635C13.6009 1.31916 13.6009 1.95232 13.9914 2.34284L19.6483 7.9997L13.9914 13.6566C13.6009 14.0471 13.6009 14.6802 13.9914 15.0708C14.382 15.4613 15.0151 15.4613 15.4057 15.0708L21.7696 8.7068ZM8.0625 8.9997H21.0625V6.9997H8.0625V8.9997Z" fill="url(#paint0_linear_902_10341)"/>
<defs>
<linearGradient id="paint0_linear_902_10341" x1="21.0625" y1="7.9997" x2="8.1123" y2="7.55397" gradientUnits="userSpaceOnUse">
<stop stop-color="#0575E6"/>
<stop offset="1" stop-color="#00F260"/>
</linearGradient>
</defs>
</svg>
