<svg width="23" height="15" viewBox="0 0 23 15" fill="none" xmlns="http://www.w3.org/2000/svg">
<mask id="mask0_902_10342" style="mask-type:alpha" maskUnits="userSpaceOnUse" x="10" y="1" width="13" height="13">
<path d="M9.9992 13.3643L22.0625 13.3643V1.36426L9.9992 1.36426L9.9992 13.3643Z" fill="#D9D9D9"/>
</mask>
<g mask="url(#mask0_902_10342)">
<path d="M1.21493 12.3643L16.2031 12.3643C18.4123 12.3643 20.2031 10.5734 20.2031 8.36426V6.36426C20.2031 4.15512 18.4123 2.36426 16.2031 2.36426L1.21493 2.36426C-0.994213 2.36426 -2.78507 4.15512 -2.78507 6.36426V8.36426C-2.78507 10.5734 -0.994213 12.3643 1.21493 12.3643Z" stroke="#BDBDBD" stroke-width="2"/>
</g>
<path d="M0.292893 6.65686C-0.097631 7.04738 -0.097631 7.68054 0.292893 8.07107L6.65685 14.4351C7.04738 14.8256 7.68054 14.8256 8.07107 14.4351C8.46159 14.0445 8.46159 13.4114 8.07107 13.0209L2.41421 7.36396L8.07107 1.70711C8.46159 1.31658 8.46159 0.68342 8.07107 0.292893C7.68054 -0.097631 7.04738 -0.097631 6.65685 0.292893L0.292893 6.65686ZM14 6.36396H1V8.36396H14V6.36396Z" fill="url(#paint0_linear_902_10342)"/>
<defs>
<linearGradient id="paint0_linear_902_10342" x1="1" y1="7.36396" x2="13.9502" y2="7.80969" gradientUnits="userSpaceOnUse">
<stop stop-color="#0575E6"/>
<stop offset="1" stop-color="#00F260"/>
</linearGradient>
</defs>
</svg>
