<svg width="21" height="32" viewBox="0 0 21 32" fill="none" xmlns="http://www.w3.org/2000/svg">
	<path d="M0 11C0 10.4477 0.447715 10 1 10H7.4C7.95228 10 8.4 10.4477 8.4 11C8.4 11.5523 7.95228 12 7.4 12H1C0.447715 12 0 11.5523 0 11Z" fill="#D9D9D9"/>
	<path d="M0 6C0 5.44772 0.447715 5 1 5H4.6C5.15229 5 5.6 5.44772 5.6 6C5.6 6.55228 5.15228 7 4.6 7H0.999999C0.447714 7 0 6.55228 0 6Z" fill="#D9D9D9"/>
	<path d="M0 1C0 0.447715 0.447715 0 1 0H1.8C2.35229 0 2.8 0.447715 2.8 1C2.8 1.55228 2.35228 2 1.8 2H0.999999C0.447714 2 0 1.55228 0 1Z" fill="#D9D9D9"/>
	<path d="M0 16C0 15.4477 0.447715 15 1 15H10.2C10.7523 15 11.2 15.4477 11.2 16C11.2 16.5523 10.7523 17 10.2 17H0.999999C0.447714 17 0 16.5523 0 16Z" fill="#D9D9D9"/>
	<path d="M0 21C0 20.4477 0.447715 20 1 20H13.7C14.2523 20 14.7 20.4477 14.7 21C14.7 21.5523 14.2523 22 13.7 22H0.999999C0.447714 22 0 21.5523 0 21Z" fill="#D9D9D9"/>
	<path d="M0 26C0 25.4477 0.447715 25 1 25H16.5C17.0523 25 17.5 25.4477 17.5 26C17.5 26.5523 17.0523 27 16.5 27H1C0.447715 27 0 26.5523 0 26Z" fill="#D9D9D9"/>
	<path d="M0 31C0 30.4477 0.447715 30 1 30H20C20.5523 30 21 30.4477 21 31C21 31.5523 20.5523 32 20 32H1C0.447715 32 0 31.5523 0 31Z" fill="#D9D9D9"/>
</svg>
